<svg xmlns="http://www.w3.org/2000/svg" width="200" height="56" viewBox="0 0 200 56">
  <defs>
    <linearGradient id="bg" x1="0" y1="0" x2="0" y2="1">
      <stop offset="0%" stop-color="#F9A825"/>
      <stop offset="100%" stop-color="#F57F17"/>
    </linearGradient>
  </defs>
  <rect width="200" height="56" rx="12" fill="url(#bg)"/>
  <g fill="#1a1a1a" transform="translate(26, 14)">
    <path d="M12 2C8.1 2 5 5.1 5 9c0 1.4.4 2.6 1 3.7-.6.5-1 1.2-1 2 0 .7.3 1.4.8 1.9-.5.6-.8 1.4-.8 2.2 0 1.3.7 2.5 1.7 3.1.1 1.3 1.2 2.3 2.5 2.3.5 0 1-.2 1.4-.4.5.3 1.1.4 1.7.4s1.2-.2 1.7-.4c.4.3.9.4 1.4.4 1.3 0 2.4-1 2.5-2.3 1-.6 1.7-1.8 1.7-3.1 0-.8-.3-1.6-.8-2.2.5-.5.8-1.2.8-1.9 0-.8-.4-1.5-1-2C18.6 11.6 19 10.4 19 9c0-3.9-3.1-7-7-7z" transform="scale(0.95)"/>
  </g>
  <text x="112" y="34" font-family="system-ui,-apple-system,sans-serif" font-size="17" font-weight="600" fill="#1a1a1a" text-anchor="middle">Linux</text>
</svg>
